<?xml version="1.0" encoding="UTF-8"?>
<svg id="Layer_1" data-name="Layer 1" xmlns="http://www.w3.org/2000/svg" viewBox="0 0 159.87 121.78">
  <defs>
    <style>
      .cls-1 {
        fill: #85cc23;
      }
    </style>
  </defs>
  <path class="cls-1" d="M118.9,45.82c-1.12.81-1.78,1.85-1.98,3.12-.21,1.27.05,2.46.76,3.58l12.94,20.4c2.23,3.55,2.64,7.36,1.22,11.42l-10.66,29.23c-.91,2.44-2.46,4.41-4.64,5.94-2.18,1.52-4.59,2.28-7.23,2.28H6.26c-2.13,0-3.83-.89-5.1-2.66-1.27-1.77-1.5-3.68-.69-5.71L38.68,8.22c.91-2.44,2.44-4.41,4.57-5.94,2.13-1.52,4.57-2.28,7.31-2.28h103.05c2.13,0,3.83.89,5.1,2.66,1.27,1.78,1.5,3.68.69,5.71l-1.83,5.33c-1.32,3.45-3.45,6.29-6.39,8.52l-32.27,23.59ZM61.97,113.56c1.93,0,3.2-.91,3.81-2.74l18.72-51.3c.2-.61.1-1.22-.3-1.83-.41-.61-.97-.91-1.67-.91h-8.43c-1.93,0-3.25.91-3.96,2.74l-18.57,51.3c-.3.71-.25,1.35.15,1.9.4.56.96.84,1.67.84h8.58ZM85.57,48.56c1.93,0,3.25-.91,3.96-2.74l12.63-34.71c.2-.71.1-1.37-.3-1.98-.41-.61-1.02-.91-1.83-.91h-8.28c-1.93,0-3.25.91-3.96,2.74l-12.63,34.86c-.2.71-.1,1.35.3,1.9.4.56.96.84,1.67.84h8.43Z"/>
</svg>